<svg width="83" height="62" viewBox="0 0 83 62" fill="none" xmlns="http://www.w3.org/2000/svg">
<path d="M19.8094 61.4C13.5427 61.4 8.74271 59.2 5.40938 54.8C2.20938 50.2667 0.609375 44.9333 0.609375 38.8C0.609375 30.5333 3.00938 22.8667 7.80938 15.8C12.7427 8.73333 18.876 3.46666 26.2094 -1.04904e-05L38.0094 9.4C32.676 11.5333 28.0094 14.5333 24.0094 18.4C20.0094 22.1333 17.276 26.0667 15.8094 30.2L16.8094 30.8C17.476 30.2667 18.276 29.8667 19.2094 29.6C20.1427 29.3333 21.476 29.2 23.2094 29.2C26.276 29.2 29.3427 30.4667 32.4094 33C35.6094 35.4 37.2094 39.1333 37.2094 44.2C37.2094 49.5333 35.476 53.7333 32.0094 56.8C28.5427 59.8667 24.476 61.4 19.8094 61.4ZM64.6094 61.4C58.3427 61.4 53.5427 59.2 50.2094 54.8C47.0094 50.2667 45.4094 44.9333 45.4094 38.8C45.4094 30.5333 47.8094 22.8667 52.6094 15.8C57.5427 8.73333 63.676 3.46666 71.0094 -1.04904e-05L82.8094 9.4C77.476 11.5333 72.8094 14.5333 68.8094 18.4C64.8094 22.1333 62.076 26.0667 60.6094 30.2L61.6094 30.8C62.276 30.2667 63.076 29.8667 64.0094 29.6C64.9427 29.3333 66.276 29.2 68.0094 29.2C71.076 29.2 74.1427 30.4667 77.2094 33C80.4094 35.4 82.0094 39.1333 82.0094 44.2C82.0094 49.5333 80.276 53.7333 76.8094 56.8C73.3427 59.8667 69.276 61.4 64.6094 61.4Z" fill="#F15B3A"/>
</svg>
